<svg width="24" height="24" xmlns="http://www.w3.org/2000/svg">

 <g>
  <title>background</title>
  <rect fill="none" id="canvas_background" height="402" width="582" y="-1" x="-1"/>
 </g>
 <g>
  <title>Layer 1</title>
  <path fill="#666666" id="svg_1" d="m15,19a3,3 0 0 1 -6,0l-5,0a1,1 0 0 1 0,-2l1,0l0,-6a7,7 0 0 1 4.02,-6.34a3,3 0 0 1 5.96,0a7,7 0 0 1 4.02,6.34l0,6l1,0a1,1 0 0 1 0,2l-5,0zm-4,0a1,1 0 0 0 2,0l-2,0zm0,-12.9a5,5 0 0 0 -4,4.9l0,6l10,0l0,-6a5,5 0 0 0 -4,-4.9l0,-1.1a1,1 0 0 0 -2,0l0,1.1z" class="heroicon-ui"/>
 </g>
</svg>